<?xml version="1.0" encoding="utf-8"?>
<!-- Generator: Adobe Illustrator 14.0.0, SVG Export Plug-In . SVG Version: 6.00 Build 43363)  -->
<!DOCTYPE svg PUBLIC "-//W3C//DTD SVG 1.1//EN" "http://www.w3.org/Graphics/SVG/1.1/DTD/svg11.dtd">
<svg version="1.1" id="Layer_1" xmlns="http://www.w3.org/2000/svg" xmlns:xlink="http://www.w3.org/1999/xlink" x="0px" y="0px"
	 width="1200px" height="1200px" viewBox="0 0 1200 1200" enable-background="new 0 0 1200 1200" xml:space="preserve">
<path fill="#87888A" d="M836.798,133.596c0,51.951-42.075,94.026-94.025,94.026c-51.879,0-93.952-42.075-93.952-94.026
	c0-51.884,42.073-93.959,93.952-93.959C794.723,39.637,836.798,81.712,836.798,133.596z"/>
<path fill="#134D20" d="M389.597,901.444c-11.679-72.193-2.884-143.327,21.883-202.427c-22.212,2.523-38.223,3.046-46.51,1.511
	c-28.444,46.279-44.895,100.918-44.895,159.466c0,14.752,1.065,29.245,3.078,43.425C334.66,905.772,357.59,905.053,389.597,901.444z
	"/>
<path fill="#134D20" d="M518.565,575.222c-33.401,20.687-60.559,53.636-79.784,94.313c22.586-3.021,50.659-7.952,82.533-14.632
	c11.538-2.47,23.007-4.93,34.406-7.568c-5.871-38.998-8.456-67.779-6.947-81.159C538.488,568.657,528.409,571.686,518.565,575.222z"
	/>
<path fill="#134D20" d="M384.178,672.825c7.532,1.209,21.454,0.689,40.531-1.46c21.363-39.524,50.608-71.937,86.031-93.217
	C460.581,597.788,416.978,630.769,384.178,672.825z"/>
<path fill="#134D20" d="M551.78,909.963c-51.222,10.688-96.185,18.609-132.421,23.565c18.155,71.665,52.282,130.946,94.428,171.298
	c27.508-3.766,61.633-9.812,100.546-17.911c14.001-2.921,28.001-5.982,41.865-9.18c-14.639-45.558-31.942-108.107-49.329-179.844
	C588.579,902.077,570.144,906.088,551.78,909.963z"/>
<path fill="#134D20" d="M520.75,680.373c-36.164,7.525-67.76,13.115-93.368,16.599c-21.11,58.685-27.582,129.536-15.41,201.591
	c36.166-4.888,80.843-12.769,131.787-23.396c18.295-3.865,36.657-7.886,54.813-12.065c-16.606-71.271-30.116-138.259-38.912-191.246
	C546.785,674.81,533.768,677.663,520.75,680.373z"/>
<path fill="#134D20" d="M618.012,557.962c-9.344,0-18.579,0.459-27.695,1.309c26.23,2.482,52.362,10.696,77.455,23.716
	c-0.273-7.122-0.608-14.113-0.995-20.973C650.908,559.363,634.62,557.962,618.012,557.962z"/>
<path fill="#134D20" d="M582.172,560.145c-10.018,1.219-19.882,2.938-29.563,5.14c4.825,11.893,13.244,39.314,23.867,77.237
	c33.259-8.072,64.976-16.654,92.168-24.931c-0.104-7.871-0.263-15.609-0.486-23.198C640.455,575.479,611.238,563.48,582.172,560.145
	z"/>
<path fill="#134D20" d="M819.503,1033.374c16.893-54.173,18.933-121.868,2.325-193.917
	c-50.029,16.432-113.848,34.263-181.813,50.665c17.303,71.837,31.589,135.02,41.376,181.702
	C732.965,1059.406,781.506,1045.822,819.503,1033.374z"/>
<path fill="#134D20" d="M742.492,776.361c-18.445-82.29-71.007-50.992-73.605-132.673c-26.303,7.629-55.514,15.371-85.864,22.684
	c14.143,51.744,31.167,117.929,48.545,189.061c67.62-16.332,131.227-34.127,180.972-50.451c-9.532-30.725-21.912-59.7-36.462-86.24
	C763.088,729.548,750.145,744.121,742.492,776.361z"/>
<path fill="#134D20" d="M793.428,704.942c17.238,27.97,31.655,58.965,42.263,92.226c29.982-10.501,53.081-20.136,66.384-28.055
	c-16.164-52.013-45.835-97.94-84.839-133.573c0.006,0.571,0.014,1.134,0.021,1.701C817.935,677.704,807.264,693.054,793.428,704.942
	z"/>
<path fill="#134D20" d="M845.116,831.646c16.468,72.023,12.381,140.475-7.884,195.744c15.129-5.3,27.96-10.33,37.864-14.871
	c25.864-44.766,40.703-96.884,40.703-152.524c0-19.108-1.768-37.796-5.114-55.924C897.166,811.901,874.42,821.364,845.116,831.646z"
	/>
<path fill="#134D20" d="M478.558,1127.007c39.812,21.424,84.981,33.969,132.945,35.014c-32.204-4.384-63.454-17.161-91.948-37.032
	C501.25,1127.061,487.289,1127.758,478.558,1127.007z"/>
<path fill="#134D20" d="M783.819,1110.962c27.589-18.796,51.905-42.154,71.911-69.005c-8.195,3.552-18.21,7.393-29.681,11.395
	C814.826,1075.681,800.628,1095.147,783.819,1110.962z"/>
<path fill="#134D20" d="M625.448,1106.938c-34.97,7.285-65.718,12.693-90.553,16.079c28.486,21.78,59.725,35.297,91.563,38.96
	c20.846-0.59,41.144-3.357,60.704-8.081c-5.691-6.824-14.042-26.208-24.071-55.229
	C650.639,1101.552,638.04,1104.301,625.448,1106.938z"/>
<path fill="#134D20" d="M685.75,1093.325c5.972,29.752,9.433,50.194,9.751,58.416c24.231-6.607,47.235-16.234,68.611-28.456
	c18.962-16.334,34.499-38.271,45.964-64.516C775.954,1069.923,732.188,1082.142,685.75,1093.325z"/>
<path fill="#134D20" d="M396.846,936.377c-32.071,3.652-55.042,4.35-66.616,2.026c18.585,70.293,61.542,130.475,119.14,170.646
	c9.511,1.109,25.667,0.42,47.249-2.004C451.235,1067.036,415.068,1008.008,396.846,936.377z"/>
<path fill="#78A921" d="M1152.116,174.073c-161.136-58.677-338.67,19.345-405.665,174.806
	c-57.842-145.115-221.114-218.987-369-165.141c-11.335,4.102-22.112,8.899-32.547,14.26c1.394,28.652,6.958,57.58,17.249,85.956
	C407.81,409.349,530.882,484.178,657.709,474.17C628.136,288.596,539.077,225.708,388.37,209.957
	c8.486-0.692,17.04-1.079,25.662-1.079c152.585,0,282.078,90.518,328.46,227.517c46.317-136.999,175.814-227.517,328.462-227.517
	c8.837,0,17.595,0.387,26.296,1.079c-156.161,16.539-249.768,81.011-273.934,284.25c146.926,19.993,292.979-64.066,345.765-209.074
	c11.477-31.464,17.74-63.489,19.197-95.344C1176.741,183.912,1164.705,178.591,1152.116,174.073z"/>
<path fill="#FFFFFF" d="M902.074,769.113c-13.303,7.919-36.401,17.554-66.384,28.055c-10.605-33.261-25.022-64.258-42.261-92.228
	c13.834-11.887,24.505-27.238,23.826-67.699c-0.007-0.567-0.015-1.13-0.021-1.701c-0.864-53.308,1.185-100.171,6.081-141.334
	c24.166-203.239,117.772-267.711,273.934-284.25c-8.701-0.692-17.459-1.079-26.296-1.079c-152.647,0-282.145,90.518-328.462,227.517
	c-46.383-136.999-175.875-227.517-328.46-227.517c-8.622,0-17.176,0.387-25.662,1.079
	c150.708,15.751,239.766,78.639,269.339,264.214c4.248,26.672,7.267,55.882,9.067,87.844c0.387,6.857,0.722,13.847,0.995,20.966
	c-25.09-13.017-51.225-21.232-77.455-23.71c-2.725,0.25-5.442,0.545-8.145,0.874c29.06,3.336,58.283,15.336,85.986,34.248
	c0.224,7.589,0.383,15.327,0.486,23.198c-27.188,8.276-58.907,16.861-92.168,24.931c-10.624-37.923-19.042-65.344-23.867-77.237
	c-1.281,0.291-2.561,0.585-3.836,0.891c-1.508,13.38,1.077,42.161,6.947,81.159c-11.399,2.639-22.868,5.099-34.406,7.568
	c-31.874,6.68-59.947,11.61-82.533,14.632c19.226-40.677,46.383-73.625,79.784-94.313c-2.625,0.941-5.237,1.914-7.825,2.926
	c-35.423,21.281-64.668,53.693-86.031,93.217c-19.077,2.149-33,2.669-40.531,1.46c-6.897,8.841-13.304,18.093-19.208,27.703
	c8.288,1.535,24.298,1.013,46.51-1.511c-24.767,59.1-33.562,130.233-21.883,202.427c-32.007,3.608-54.938,4.328-66.444,1.975
	c1.689,11.903,4.063,23.572,7.077,34.984c11.574,2.323,34.545,1.626,66.616-2.026c18.223,71.631,54.389,130.659,99.773,170.668
	c-21.583,2.424-37.738,3.113-47.249,2.004c9.355,6.529,19.098,12.531,29.188,17.958c8.731,0.751,22.693,0.054,40.997-2.019
	c28.494,19.871,59.744,32.648,91.948,37.032c2.163,0.043,4.327,0.081,6.509,0.081c2.824,0,5.641-0.044,8.446-0.125
	c-31.838-3.663-63.077-17.18-91.563-38.96c24.835-3.386,55.583-8.794,90.553-16.079c12.592-2.637,25.19-5.386,37.643-8.271
	c10.029,29.021,18.38,48.404,24.071,55.229c2.798-0.671,5.575-1.393,8.339-2.154c-0.318-8.222-3.779-28.664-9.751-58.416
	c46.438-11.184,90.204-23.402,124.326-34.556c-11.465,26.245-27.002,48.182-45.964,64.516c6.735-3.858,13.313-7.958,19.707-12.323
	c16.809-15.814,31.007-35.281,42.23-57.61c11.471-4.002,21.485-7.843,29.681-11.395c7-9.404,13.468-19.234,19.366-29.438
	c-9.904,4.541-22.735,9.571-37.864,14.871c20.265-55.27,24.352-123.721,7.884-195.744c29.304-10.281,52.05-19.744,65.569-27.575
	C908.49,792.161,905.604,780.489,902.074,769.113z M668.887,643.687v0.002c2.599,81.681,55.16,50.383,73.605,132.673
	c7.652-32.24,20.596-46.813,33.586-57.62l0,0c14.55,26.535,26.93,55.512,36.462,86.24c-49.745,16.324-113.352,34.119-180.972,50.451
	c-17.379-71.132-34.403-137.316-48.545-189.061C613.371,659.065,642.582,651.317,668.887,643.687z M427.382,696.972
	c25.608-3.483,57.205-9.073,93.368-16.599c13.018-2.71,26.035-5.563,38.91-8.518c8.796,52.987,22.306,119.975,38.912,191.246
	c-18.156,4.18-36.518,8.2-54.813,12.065c-50.943,10.627-95.621,18.508-131.787,23.396
	C399.8,826.508,406.272,755.656,427.382,696.972z M614.333,1086.915c-38.913,8.1-73.038,14.146-100.546,17.911
	c-42.146-40.352-76.272-99.633-94.428-171.298c36.236-4.956,81.199-12.877,132.421-23.565c18.364-3.875,36.798-7.886,55.089-12.071
	c17.387,71.736,34.69,134.286,49.329,179.844C642.334,1080.933,628.334,1083.994,614.333,1086.915z M819.503,1033.374
	c-37.997,12.448-86.538,26.032-138.112,38.45c-9.787-46.683-24.073-109.865-41.376-181.702
	c67.966-16.402,131.784-34.233,181.813-50.665C838.436,911.506,836.396,979.201,819.503,1033.374z"/>
<g>
	<path fill="#87888A" d="M217.117,997.47c5.813,18.893,8.72,38.27,8.72,58.131c0,72.66-36.088,108.992-108.266,108.992
		c-68.302,0-102.454-36.332-102.454-108.992c0-19.861,2.907-39.238,8.719-58.131h13.08c-5.813,18.893-8.721,37.302-8.721,55.224
		c0,64.428,29.792,96.64,89.375,96.64c63.459,0,95.187-32.212,95.187-96.64c0-17.922-2.906-36.331-8.719-55.224H217.117z"/>
	<path fill="#87888A" d="M217.117,954.6h-15.985c7.752-21.801,11.625-45.825,11.625-72.081c0-43.498-16.469-65.252-49.41-65.252
		c-24.219,0-36.331,14.147-36.331,42.436v42.725c0,38.657-17.439,57.984-52.317,57.984c-39.72,0-59.583-28.338-59.583-85.015
		c0-23.251,2.907-45.776,8.719-67.574h14.532c-6.779,21.798-10.172,44.323-10.172,67.574c0,46.505,15.502,69.756,46.504,69.756
		c25.191,0,37.785-14.242,37.785-42.726v-42.725c0-38.46,16.955-57.692,50.863-57.692c41.66,0,62.489,26.837,62.489,80.509
		C225.837,908.774,222.931,932.799,217.117,954.6z"/>
	<path fill="#87888A" d="M224.384,642.59v15.258h-49.411v119.457h-13.078L16.571,686.478V669.91l145.324,90.973V657.848H79.351
		V642.59h82.545l5.231-22.961h7.847v22.961H224.384z"/>
	<path fill="#87888A" d="M16.571,449.02H29.65v121.199h82.835V453.96h13.079v116.258h85.741V446.984h13.079v138.492H16.571V449.02z"
		/>
	<path fill="#87888A" d="M217.117,405.566h-15.985c7.752-21.797,11.625-45.824,11.625-72.08c0-43.5-16.469-65.25-49.41-65.25
		c-24.219,0-36.331,14.146-36.331,42.434v42.725c0,38.657-17.439,57.984-52.317,57.984c-39.72,0-59.583-28.338-59.583-85.014
		c0-23.251,2.907-45.777,8.719-67.576h14.532c-6.779,21.799-10.172,44.325-10.172,67.576c0,46.503,15.502,69.755,46.504,69.755
		c25.191,0,37.785-14.242,37.785-42.726V310.67c0-38.46,16.955-57.694,50.863-57.694c41.66,0,62.489,26.837,62.489,80.51
		C225.837,359.742,222.931,383.769,217.117,405.566z"/>
	<path fill="#87888A" d="M224.384,213.74H16.571v-74.116c0-67.816,32.748-101.727,98.238-101.727
		c73.051,0,109.575,34.395,109.575,103.18V213.74z M211.305,141.077c0-57.643-32.164-86.467-96.496-86.467
		c-56.771,0-85.16,28.824-85.16,86.467v57.403h181.655V141.077z"/>
</g>
</svg>
